<svg id="Layer_1" data-name="Layer 1" xmlns="http://www.w3.org/2000/svg" viewBox="0 0 181.39 251.27"><defs><style>.cls-1{fill:#ce3835;}.cls-2{fill:#fff;}</style></defs><title>redMark</title><path class="cls-1" d="M486.59,209.4L471.18,408.32a18.46,18.46,0,0,1-18.41,17H348.38a18.46,18.46,0,0,1-18.41-17L314.56,209.4a1.43,1.43,0,0,1,.37-1.08,1.46,1.46,0,0,1,1.06-.47H485.16a1.45,1.45,0,0,1,1.05.47A1.43,1.43,0,0,1,486.59,209.4Z" transform="translate(-309.88 -174.09)"/><path class="cls-1" d="M491.27,201.35v3.05H309.88v-3.05A13.08,13.08,0,0,1,323,188.27h45.51c5.61-8.46,17.73-14.18,32.12-14.18s26.49,5.72,32.1,14.18h45.51A13.08,13.08,0,0,1,491.27,201.35Z" transform="translate(-309.88 -174.09)"/><path class="cls-2" d="M434.52,275.55a0.42,0.42,0,0,0-.49-0.09l-4.77,2.36-10.62-21.45a1.07,1.07,0,0,0-1-.6l-33.3.07a1.07,1.07,0,0,0-.86.43L366.6,279.05a0.42,0.42,0,0,0,.08.58l19.62,14.67a0.42,0.42,0,0,0,.58-0.08l13.37-17.88,6.29,12.71-4.77,2.36a0.42,0.42,0,0,0,.14.79l21.15,2.18a0.41,0.41,0,0,0,.4-0.2l11.09-18.14A0.42,0.42,0,0,0,434.52,275.55Zm-34.22.74h0l0,0Zm17,81.57a0.42,0.42,0,0,0,.3-0.4l0-5.32,23.93-.15a1.07,1.07,0,0,0,1-.61l14.52-30a1.07,1.07,0,0,0,0-1l-13.07-25.18a0.42,0.42,0,0,0-.56-0.18l-21.78,11.21a0.42,0.42,0,0,0-.18.56l10.22,19.85-14.18.09,0-5.32a0.42,0.42,0,0,0-.77-0.22l-11.23,18.06a0.41,0.41,0,0,0,0,.44l11.45,17.92A0.42,0.42,0,0,0,417.27,357.86Zm14.32-31.09h0v0Zm-81.5-25.35a0.42,0.42,0,0,0,.22.45l4.74,2.41-10.85,21.33a1.07,1.07,0,0,0,.1,1.13l20,26.66a1.07,1.07,0,0,0,.86.43l28.37,0a0.42,0.42,0,0,0,.42-0.41l0-24.5a0.42,0.42,0,0,0-.41-0.42l-22.33,0,6.43-12.64,4.74,2.41a0.42,0.42,0,0,0,.55-0.58L372,299.35a0.41,0.41,0,0,0-.39-0.2l-21.18,1.95A0.42,0.42,0,0,0,350.1,301.43Zm21,27h0Z" transform="translate(-309.88 -174.09)"/></svg>